<?xml version="1.0" standalone="no"?>
<!DOCTYPE svg PUBLIC "-//W3C//DTD SVG 20010904//EN"
 "http://www.w3.org/TR/2001/REC-SVG-20010904/DTD/svg10.dtd">
<svg version="1.0" xmlns="http://www.w3.org/2000/svg"
 width="585.000000pt" height="585.000000pt" viewBox="0 0 585.000000 585.000000"
 preserveAspectRatio="xMidYMid meet">
<metadata>
Created by potrace 1.14, written by Peter Selinger 2001-2017
</metadata>
<g transform="translate(0.000000,585.000000) scale(0.100000,-0.100000)"
fill="#000000" stroke="none">
<path d="M2707 5844 c-2 -2 -28 -6 -58 -9 -30 -2 -72 -7 -94 -10 -22 -3 -54
-8 -72 -9 -17 -2 -35 -6 -40 -9 -5 -3 -29 -8 -53 -11 -25 -3 -60 -10 -78 -15
-18 -5 -35 -10 -37 -10 -29 -4 -39 -7 -85 -20 -25 -7 -45 -12 -45 -11 0 1 -13
-4 -30 -10 -16 -7 -37 -13 -45 -15 -34 -9 -175 -60 -180 -65 -3 -3 -27 -14
-55 -24 -27 -10 -69 -29 -92 -43 -24 -13 -43 -22 -43 -19 0 3 -21 -7 -47 -22
-27 -16 -63 -35 -80 -43 -18 -7 -33 -17 -33 -21 0 -5 -5 -8 -10 -8 -13 0 -144
-81 -148 -92 -2 -4 -10 -8 -18 -8 -8 0 -14 -4 -14 -10 0 -5 -7 -10 -15 -10 -8
0 -15 -4 -15 -10 0 -5 -6 -10 -14 -10 -8 0 -16 -3 -18 -7 -1 -5 -30 -28 -63
-52 -119 -89 -300 -259 -403 -377 -23 -27 -51 -58 -61 -69 -9 -11 -41 -51 -70
-90 -29 -38 -59 -78 -66 -87 -7 -9 -18 -25 -24 -36 -6 -11 -17 -26 -24 -34 -7
-7 -18 -24 -25 -38 -17 -36 -36 -64 -47 -72 -6 -5 -6 -8 -1 -8 6 0 1 -7 -10
-15 -10 -8 -15 -15 -11 -15 5 0 0 -12 -11 -27 -10 -16 -22 -35 -26 -43 -3 -8
-20 -40 -36 -70 -17 -30 -30 -60 -30 -67 0 -7 -4 -13 -10 -13 -5 0 -10 -9 -10
-20 0 -11 -4 -20 -10 -20 -5 0 -10 -6 -10 -14 0 -8 -13 -43 -29 -78 -37 -82
-116 -317 -137 -403 -1 -5 -5 -21 -8 -35 -3 -14 -10 -43 -15 -65 -12 -48 -21
-99 -27 -140 -2 -16 -6 -43 -9 -60 -4 -16 -8 -46 -10 -65 -2 -19 -7 -69 -12
-110 -10 -95 -10 -463 0 -555 14 -128 18 -160 23 -185 3 -14 7 -38 9 -55 3
-16 7 -41 10 -55 4 -14 8 -36 11 -50 2 -14 7 -36 11 -50 3 -14 7 -29 8 -35 26
-109 80 -277 125 -390 59 -149 119 -276 135 -287 6 -4 6 -8 1 -8 -5 0 -2 -8 7
-18 8 -9 20 -28 26 -42 6 -14 22 -43 36 -65 13 -22 32 -53 41 -70 9 -16 22
-33 28 -37 6 -4 7 -8 3 -8 -4 0 4 -12 18 -27 14 -15 25 -32 25 -36 0 -5 11
-23 25 -41 14 -17 29 -36 33 -41 120 -164 314 -368 477 -501 99 -81 185 -144
195 -144 5 0 10 -4 10 -8 0 -9 235 -152 301 -182 24 -11 51 -24 59 -29 26 -15
149 -70 170 -76 3 -1 23 -9 45 -19 22 -9 52 -20 68 -23 15 -3 30 -10 33 -14 3
-5 15 -9 28 -9 12 0 26 -3 30 -7 3 -4 12 -8 19 -9 7 -1 44 -11 82 -22 39 -12
85 -24 104 -27 19 -3 37 -7 40 -9 3 -2 22 -7 41 -10 19 -3 46 -8 60 -12 49
-11 172 -26 227 -28 18 -1 33 -4 33 -7 0 -8 443 -4 520 5 30 3 70 8 88 11 17
3 49 8 70 11 20 2 44 6 52 9 8 2 33 7 55 11 72 11 258 62 360 99 55 20 105 38
110 39 48 13 325 148 325 158 0 4 4 7 9 5 16 -4 345 210 371 243 3 3 14 13 26
21 113 77 435 408 482 495 7 13 16 24 20 24 5 0 19 19 32 43 13 23 32 51 42
62 11 11 31 40 45 65 14 25 29 47 32 50 6 5 18 27 84 150 22 41 44 79 48 85 5
5 9 15 9 23 0 8 9 26 19 40 10 15 19 29 19 32 0 3 6 19 12 35 7 17 19 46 27
65 8 19 18 44 23 55 24 54 112 342 123 405 3 14 8 36 11 50 9 37 17 82 21 110
2 14 4 26 5 28 1 1 3 10 4 20 1 9 6 40 10 69 18 123 32 615 18 638 -3 5 -7 30
-8 55 -1 25 -5 63 -8 85 -15 103 -19 131 -23 150 -2 11 -6 31 -9 45 -2 14 -7
36 -10 50 -4 14 -8 34 -10 45 -3 24 -43 173 -51 195 -4 8 -7 17 -7 20 -8 33
-67 196 -98 270 -41 98 -146 311 -157 320 -3 3 -17 25 -30 50 -27 49 -120 192
-131 200 -4 3 -9 10 -11 16 -5 13 -38 56 -135 173 -101 123 -277 298 -374 371
-18 14 -38 30 -44 35 -20 19 -91 70 -96 70 -3 -1 -15 10 -26 22 -12 13 -24 23
-28 23 -3 0 -39 21 -79 48 -40 26 -86 54 -102 62 -17 8 -32 18 -35 21 -10 12
-304 153 -342 164 -5 2 -10 4 -13 5 -3 1 -8 3 -12 5 -5 1 -16 5 -25 9 -9 4
-22 9 -30 10 -7 1 -22 7 -33 13 -11 6 -22 11 -25 11 -3 0 -39 10 -80 23 -41
12 -79 24 -85 25 -5 1 -21 5 -35 8 -14 3 -43 10 -65 15 -22 5 -49 11 -60 14
-11 3 -40 8 -65 12 -25 4 -54 9 -65 11 -24 5 -84 13 -145 21 -57 6 -497 12
-503 7z"/>
</g>
</svg>
